<?xml version="1.0" encoding="UTF-8"?>
<svg width="72px" height="72px" viewBox="0 0 72 72" version="1.1" xmlns="http://www.w3.org/2000/svg" xmlns:xlink="http://www.w3.org/1999/xlink">
    <!-- Generator: sketchtool 41.1 (35376) - http://www.bohemiancoding.com/sketch -->
    <title>CB9DA67E-4283-4851-AF08-877EA36DA5A1</title>
    <desc>Created with sketchtool.</desc>
    <defs>
        <polygon id="path-1" points="0 0 17.4545455 0 17.4545455 17.4545455 0 17.4545455"></polygon>
    </defs>
    <g id="Page-1" stroke="none" stroke-width="1" fill="none" fill-rule="evenodd">
        <g id="hdpi/ic_launcher_APP">
            <g id="Group" transform="translate(4.000000, 4.000000)">
                <circle id="Oval" fill="#D1E8E8" cx="32" cy="32" r="32"></circle>
                <path d="M14.5454545,18.9071212 C14.5454545,18.1048858 15.199791,17.4545455 16.0034395,17.4545455 L34.1783787,17.4545455 C34.9836015,17.4545455 35.6363636,18.1029381 35.6363636,18.9071212 L35.6363636,45.0928788 C35.6363636,45.8951142 34.9820271,46.5454545 34.1783787,46.5454545 L16.0034395,46.5454545 C15.1982166,46.5454545 14.5454545,45.8970619 14.5454545,45.0928788 L14.5454545,18.9071212 Z" id="Combined-Shape" fill="#7DBDBD"></path>
                <path d="M35.6363636,44.9607418 C35.6363636,45.8359545 34.9286005,46.5454545 34.0554328,46.5454545 L16.1263854,46.5454545 C15.2532614,46.5454545 14.5454545,45.8335735 14.5454545,44.9607418 L14.5454545,19.0392582 C14.5454545,18.1640455 15.2532177,17.4545455 16.1263854,17.4545455 L34.0554328,17.4545455 C34.9285568,17.4545455 35.6363636,18.1664265 35.6363636,19.0392582 L35.6363636,44.9607418 Z M35.6146509,44.9586777 C35.4895727,45.7090819 34.8391238,46.2809917 34.0554328,46.2809917 L16.1263854,46.2809917 C15.3429589,46.2809917 14.6926277,45.7073103 14.5672765,44.9586777 L14.5454545,44.9586777 L14.5454545,19.0402828 C14.5454545,18.1645043 15.2532177,17.4545455 16.1263854,17.4545455 L34.0554328,17.4545455 C34.9285568,17.4545455 35.6363636,18.1671132 35.6363636,19.0402828 L35.6363636,44.9586777 L35.6146509,44.9586777 L35.6146509,44.9586777 Z" id="bottom" fill="#70A9A9"></path>
                <path d="M14.5454545,19.0392582 C14.5454545,18.1640455 15.2532177,17.4545455 16.1263854,17.4545455 L34.0554328,17.4545455 C34.9285568,17.4545455 35.6363636,18.1664265 35.6363636,19.0392582 L35.6363636,44.9607418 C35.6363636,45.8359545 34.9286005,46.5454545 34.0554328,46.5454545 L16.1263854,46.5454545 C15.2532614,46.5454545 14.5454545,45.8335735 14.5454545,44.9607418 L14.5454545,19.0392582 Z M14.5671673,19.0413223 C14.6922455,18.2909181 15.3426943,17.7190083 16.1263854,17.7190083 L34.0554328,17.7190083 C34.8388592,17.7190083 35.4891905,18.2926897 35.6145416,19.0413223 L35.6363636,19.0413223 L35.6363636,44.9597172 C35.6363636,45.8354957 34.9286005,46.5454545 34.0554328,46.5454545 L16.1263854,46.5454545 C15.2532614,46.5454545 14.5454545,45.8328868 14.5454545,44.9597172 L14.5454545,19.0413223 L14.5671673,19.0413223 L14.5671673,19.0413223 Z" id="top" fill="#8AC3C3"></path>
                <path d="M28.3636364,18.9071212 C28.3636364,18.1048858 29.0179729,17.4545455 29.8216213,17.4545455 L47.9965605,17.4545455 C48.8017834,17.4545455 49.4545455,18.1029381 49.4545455,18.9071212 L49.4545455,45.0928788 C49.4545455,45.8951142 48.800209,46.5454545 47.9965605,46.5454545 L29.8216213,46.5454545 C29.0163985,46.5454545 28.3636364,45.8970619 28.3636364,45.0928788 L28.3636364,18.9071212 Z" id="Combined-Shape" fill="#7DBDBD"></path>
                <path d="M49.4545455,44.9607418 C49.4545455,45.8359545 48.7467823,46.5454545 47.8736146,46.5454545 L29.9445672,46.5454545 C29.0714432,46.5454545 28.3636364,45.8335735 28.3636364,44.9607418 L28.3636364,19.0392582 C28.3636364,18.1640455 29.0713995,17.4545455 29.9445672,17.4545455 L47.8736146,17.4545455 C48.7467386,17.4545455 49.4545455,18.1664265 49.4545455,19.0392582 L49.4545455,44.9607418 Z M49.4328327,44.9586777 C49.3077545,45.7090819 48.6573057,46.2809917 47.8736146,46.2809917 L29.9445672,46.2809917 C29.1611408,46.2809917 28.5108095,45.7073103 28.3854584,44.9586777 L28.3636364,44.9586777 L28.3636364,19.0402828 C28.3636364,18.1645043 29.0713995,17.4545455 29.9445672,17.4545455 L47.8736146,17.4545455 C48.7467386,17.4545455 49.4545455,18.1671132 49.4545455,19.0402828 L49.4545455,44.9586777 L49.4328327,44.9586777 L49.4328327,44.9586777 Z" id="bottom" fill="#70A9A9"></path>
                <path d="M28.3636364,19.0392582 C28.3636364,18.1640455 29.0713995,17.4545455 29.9445672,17.4545455 L47.8736146,17.4545455 C48.7467386,17.4545455 49.4545455,18.1664265 49.4545455,19.0392582 L49.4545455,44.9607418 C49.4545455,45.8359545 48.7467823,46.5454545 47.8736146,46.5454545 L29.9445672,46.5454545 C29.0714432,46.5454545 28.3636364,45.8335735 28.3636364,44.9607418 L28.3636364,19.0392582 Z M28.3853491,19.0413223 C28.5104273,18.2909181 29.1608762,17.7190083 29.9445672,17.7190083 L47.8736146,17.7190083 C48.6570411,17.7190083 49.3073723,18.2926897 49.4327235,19.0413223 L49.4545455,19.0413223 L49.4545455,44.9597172 C49.4545455,45.8354957 48.7467823,46.5454545 47.8736146,46.5454545 L29.9445672,46.5454545 C29.0714432,46.5454545 28.3636364,45.8328868 28.3636364,44.9597172 L28.3636364,19.0413223 L28.3853491,19.0413223 L28.3853491,19.0413223 Z" id="top" fill="#8AC3C3"></path>
                <path d="M17.4545455,14.17898 C17.4545455,12.9755626 18.4307705,12 19.6351398,12 L44.3648602,12 C45.5691692,12 46.5454545,12.9788364 46.5454545,14.17898 L46.5454545,49.82102 C46.5454545,51.0244374 45.5692295,52 44.3648602,52 L19.6351398,52 C18.4308308,52 17.4545455,51.0211636 17.4545455,49.82102 L17.4545455,14.17898 Z" id="Combined-Shape" fill="#339999"></path>
                <path d="M46.5454545,49.82102 C46.5454545,51.0244374 45.5692295,52 44.3648602,52 L19.6351398,52 C18.4308308,52 17.4545455,51.0211636 17.4545455,49.82102 L17.4545455,14.17898 C17.4545455,12.9755626 18.4307705,12 19.6351398,12 L44.3648602,12 C45.5691692,12 46.5454545,12.9788364 46.5454545,14.17898 L46.5454545,49.82102 Z M46.515506,49.8181818 C46.3429842,50.8499876 45.4458134,51.6363636 44.3648602,51.6363636 L19.6351398,51.6363636 C18.5545515,51.6363636 17.6575429,50.8475516 17.4846448,49.8181818 L17.4545455,49.8181818 L17.4545455,14.1803889 C17.4545455,12.9761934 18.4307705,12 19.6351398,12 L44.3648602,12 C45.5691692,12 46.5454545,12.9797807 46.5454545,14.1803889 L46.5454545,49.8181818 L46.515506,49.8181818 L46.515506,49.8181818 Z" id="bottom" fill="#2D8989"></path>
                <path d="M17.4545455,14.17898 C17.4545455,12.9755626 18.4307705,12 19.6351398,12 L44.3648602,12 C45.5691692,12 46.5454545,12.9788364 46.5454545,14.17898 L46.5454545,49.82102 C46.5454545,51.0244374 45.5692295,52 44.3648602,52 L19.6351398,52 C18.4308308,52 17.4545455,51.0211636 17.4545455,49.82102 L17.4545455,14.17898 Z M17.484494,14.1818182 C17.6570158,13.1500124 18.5541866,12.3636364 19.6351398,12.3636364 L44.3648602,12.3636364 C45.4454485,12.3636364 46.3424571,13.1524484 46.5153552,14.1818182 L46.5454545,14.1818182 L46.5454545,49.8196111 C46.5454545,51.0238066 45.5692295,52 44.3648602,52 L19.6351398,52 C18.4308308,52 17.4545455,51.0202193 17.4545455,49.8196111 L17.4545455,14.1818182 L17.484494,14.1818182 L17.484494,14.1818182 Z" id="top" fill="#51A8A8"></path>
                <g id="ic_playlist_add_check_white_48px" transform="translate(26.181818, 23.272727)">
                    <g id="Clipped" transform="translate(0.000000, 0.000000)">
                        <mask id="mask-2" fill="white">
                            <use xlink:href="#path-1"></use>
                        </mask>
                        <g id="a"></g>
                        <path d="M10.1818182,7.27272727 L1.45454545,7.27272727 L1.45454545,8.72727273 L10.1818182,8.72727273 L10.1818182,7.27272727 Z M10.1818182,4.36363636 L1.45454545,4.36363636 L1.45454545,5.81818182 L10.1818182,5.81818182 L10.1818182,4.36363636 Z M1.45454545,11.6363636 L7.27272727,11.6363636 L7.27272727,10.1818182 L1.45454545,10.1818182 L1.45454545,11.6363636 Z M15.6363636,8.36363636 L16.7272727,9.45454545 L11.6436364,14.5454545 L8.36363636,11.2727273 L9.45454545,10.1818182 L11.6436364,12.3636364 L15.6363636,8.36363636 Z" id="Shape" fill="#FFFFFF" mask="url(#mask-2)"></path>
                    </g>
                </g>
            </g>
        </g>
    </g>
</svg>